M48
; DRILL file {KiCad 9.0.7} date 2026-04-10T23:23:57+0100
; FORMAT={-:-/ absolute / metric / decimal}
; #@! TF.CreationDate,2026-04-10T23:23:57+01:00
; #@! TF.GenerationSoftware,Kicad,Pcbnew,9.0.7
; #@! TF.FileFunction,Plated,1,2,PTH
FMAT,2
METRIC
; #@! TA.AperFunction,Plated,PTH,ViaDrill
T1C0.300
; #@! TA.AperFunction,Plated,PTH,ComponentDrill
T2C0.800
; #@! TA.AperFunction,Plated,PTH,ComponentDrill
T3C1.000
%
G90
G05
T1
X67.5Y-57.0
X72.5Y-42.5
X82.432Y-52.5
X83.5Y-42.5
X96.0Y-57.0
X97.5Y-52.5
X104.0Y-57.0
X112.5Y-57.0
X117.5Y-42.5
T2
X67.42Y-37.5
X72.5Y-37.5
X77.58Y-37.5
X82.5Y-37.5
X82.5Y-67.0
X82.5Y-74.62
X87.5Y-66.88
X87.5Y-74.5
X87.58Y-37.5
X92.5Y-66.88
X92.5Y-74.5
X92.66Y-37.5
X97.5Y-37.5
X97.5Y-66.88
X97.5Y-74.5
X102.58Y-37.5
X107.66Y-37.5
X112.5Y-37.5
X117.58Y-37.5
X122.66Y-37.5
T3
X75.84Y-45.26
X75.84Y-60.5
X78.38Y-45.26
X78.38Y-60.5
X80.92Y-45.26
X80.92Y-60.5
X82.5Y-79.0
X82.5Y-81.54
X83.46Y-45.26
X83.46Y-60.5
X86.0Y-45.26
X86.0Y-60.5
X87.5Y-79.0
X87.5Y-81.54
X88.54Y-45.26
X88.54Y-60.5
X91.08Y-45.26
X91.08Y-60.5
X92.5Y-79.0
X92.5Y-81.54
X93.62Y-45.26
X93.62Y-60.5
X96.16Y-45.26
X96.16Y-60.5
X97.5Y-79.0
X97.5Y-81.54
X98.7Y-45.26
X98.7Y-60.5
X101.24Y-45.26
X101.24Y-60.5
X103.78Y-45.26
X103.78Y-60.5
X106.32Y-45.26
X106.32Y-60.5
X108.86Y-45.26
X108.86Y-60.5
X111.4Y-45.26
X111.4Y-60.5
M30
