%TF.GenerationSoftware,KiCad,Pcbnew,9.0.7*%
%TF.CreationDate,2026-04-10T23:23:30+01:00*%
%TF.ProjectId,Samantha_says,53616d61-6e74-4686-915f-736179732e6b,rev?*%
%TF.SameCoordinates,Original*%
%TF.FileFunction,Legend,Top*%
%TF.FilePolarity,Positive*%
%FSLAX46Y46*%
G04 Gerber Fmt 4.6, Leading zero omitted, Abs format (unit mm)*
G04 Created by KiCad (PCBNEW 9.0.7) date 2026-04-10 23:23:30*
%MOMM*%
%LPD*%
G01*
G04 APERTURE LIST*
%ADD10C,0.100000*%
%ADD11C,0.150000*%
%ADD12C,0.120000*%
G04 APERTURE END LIST*
D10*
X92250038Y-41672306D02*
X92202419Y-41767544D01*
X92202419Y-41767544D02*
X92202419Y-41910401D01*
X92202419Y-41910401D02*
X92250038Y-42053258D01*
X92250038Y-42053258D02*
X92345276Y-42148496D01*
X92345276Y-42148496D02*
X92440514Y-42196115D01*
X92440514Y-42196115D02*
X92630990Y-42243734D01*
X92630990Y-42243734D02*
X92773847Y-42243734D01*
X92773847Y-42243734D02*
X92964323Y-42196115D01*
X92964323Y-42196115D02*
X93059561Y-42148496D01*
X93059561Y-42148496D02*
X93154800Y-42053258D01*
X93154800Y-42053258D02*
X93202419Y-41910401D01*
X93202419Y-41910401D02*
X93202419Y-41815163D01*
X93202419Y-41815163D02*
X93154800Y-41672306D01*
X93154800Y-41672306D02*
X93107180Y-41624687D01*
X93107180Y-41624687D02*
X92773847Y-41624687D01*
X92773847Y-41624687D02*
X92773847Y-41815163D01*
X93202419Y-41196115D02*
X92202419Y-41196115D01*
X92202419Y-41196115D02*
X93202419Y-40624687D01*
X93202419Y-40624687D02*
X92202419Y-40624687D01*
X93202419Y-40148496D02*
X92202419Y-40148496D01*
X92202419Y-40148496D02*
X92202419Y-39910401D01*
X92202419Y-39910401D02*
X92250038Y-39767544D01*
X92250038Y-39767544D02*
X92345276Y-39672306D01*
X92345276Y-39672306D02*
X92440514Y-39624687D01*
X92440514Y-39624687D02*
X92630990Y-39577068D01*
X92630990Y-39577068D02*
X92773847Y-39577068D01*
X92773847Y-39577068D02*
X92964323Y-39624687D01*
X92964323Y-39624687D02*
X93059561Y-39672306D01*
X93059561Y-39672306D02*
X93154800Y-39767544D01*
X93154800Y-39767544D02*
X93202419Y-39910401D01*
X93202419Y-39910401D02*
X93202419Y-40148496D01*
X82952419Y-40696115D02*
X81952419Y-40696115D01*
X81952419Y-40029449D02*
X81952419Y-39838973D01*
X81952419Y-39838973D02*
X82000038Y-39743735D01*
X82000038Y-39743735D02*
X82095276Y-39648497D01*
X82095276Y-39648497D02*
X82285752Y-39600878D01*
X82285752Y-39600878D02*
X82619085Y-39600878D01*
X82619085Y-39600878D02*
X82809561Y-39648497D01*
X82809561Y-39648497D02*
X82904800Y-39743735D01*
X82904800Y-39743735D02*
X82952419Y-39838973D01*
X82952419Y-39838973D02*
X82952419Y-40029449D01*
X82952419Y-40029449D02*
X82904800Y-40124687D01*
X82904800Y-40124687D02*
X82809561Y-40219925D01*
X82809561Y-40219925D02*
X82619085Y-40267544D01*
X82619085Y-40267544D02*
X82285752Y-40267544D01*
X82285752Y-40267544D02*
X82095276Y-40219925D01*
X82095276Y-40219925D02*
X82000038Y-40124687D01*
X82000038Y-40124687D02*
X81952419Y-40029449D01*
X86952419Y-42338972D02*
X87952419Y-42005639D01*
X87952419Y-42005639D02*
X86952419Y-41672306D01*
X87857180Y-40767544D02*
X87904800Y-40815163D01*
X87904800Y-40815163D02*
X87952419Y-40958020D01*
X87952419Y-40958020D02*
X87952419Y-41053258D01*
X87952419Y-41053258D02*
X87904800Y-41196115D01*
X87904800Y-41196115D02*
X87809561Y-41291353D01*
X87809561Y-41291353D02*
X87714323Y-41338972D01*
X87714323Y-41338972D02*
X87523847Y-41386591D01*
X87523847Y-41386591D02*
X87380990Y-41386591D01*
X87380990Y-41386591D02*
X87190514Y-41338972D01*
X87190514Y-41338972D02*
X87095276Y-41291353D01*
X87095276Y-41291353D02*
X87000038Y-41196115D01*
X87000038Y-41196115D02*
X86952419Y-41053258D01*
X86952419Y-41053258D02*
X86952419Y-40958020D01*
X86952419Y-40958020D02*
X87000038Y-40815163D01*
X87000038Y-40815163D02*
X87047657Y-40767544D01*
X87857180Y-39767544D02*
X87904800Y-39815163D01*
X87904800Y-39815163D02*
X87952419Y-39958020D01*
X87952419Y-39958020D02*
X87952419Y-40053258D01*
X87952419Y-40053258D02*
X87904800Y-40196115D01*
X87904800Y-40196115D02*
X87809561Y-40291353D01*
X87809561Y-40291353D02*
X87714323Y-40338972D01*
X87714323Y-40338972D02*
X87523847Y-40386591D01*
X87523847Y-40386591D02*
X87380990Y-40386591D01*
X87380990Y-40386591D02*
X87190514Y-40338972D01*
X87190514Y-40338972D02*
X87095276Y-40291353D01*
X87095276Y-40291353D02*
X87000038Y-40196115D01*
X87000038Y-40196115D02*
X86952419Y-40053258D01*
X86952419Y-40053258D02*
X86952419Y-39958020D01*
X86952419Y-39958020D02*
X87000038Y-39815163D01*
X87000038Y-39815163D02*
X87047657Y-39767544D01*
D11*
X81761905Y-84374819D02*
X81761905Y-83374819D01*
X81761905Y-83374819D02*
X82000000Y-83374819D01*
X82000000Y-83374819D02*
X82142857Y-83422438D01*
X82142857Y-83422438D02*
X82238095Y-83517676D01*
X82238095Y-83517676D02*
X82285714Y-83612914D01*
X82285714Y-83612914D02*
X82333333Y-83803390D01*
X82333333Y-83803390D02*
X82333333Y-83946247D01*
X82333333Y-83946247D02*
X82285714Y-84136723D01*
X82285714Y-84136723D02*
X82238095Y-84231961D01*
X82238095Y-84231961D02*
X82142857Y-84327200D01*
X82142857Y-84327200D02*
X82000000Y-84374819D01*
X82000000Y-84374819D02*
X81761905Y-84374819D01*
X83190476Y-83708152D02*
X83190476Y-84374819D01*
X82952381Y-83327200D02*
X82714286Y-84041485D01*
X82714286Y-84041485D02*
X83333333Y-84041485D01*
D10*
X116952419Y-42338972D02*
X117952419Y-42005639D01*
X117952419Y-42005639D02*
X116952419Y-41672306D01*
X117857180Y-40767544D02*
X117904800Y-40815163D01*
X117904800Y-40815163D02*
X117952419Y-40958020D01*
X117952419Y-40958020D02*
X117952419Y-41053258D01*
X117952419Y-41053258D02*
X117904800Y-41196115D01*
X117904800Y-41196115D02*
X117809561Y-41291353D01*
X117809561Y-41291353D02*
X117714323Y-41338972D01*
X117714323Y-41338972D02*
X117523847Y-41386591D01*
X117523847Y-41386591D02*
X117380990Y-41386591D01*
X117380990Y-41386591D02*
X117190514Y-41338972D01*
X117190514Y-41338972D02*
X117095276Y-41291353D01*
X117095276Y-41291353D02*
X117000038Y-41196115D01*
X117000038Y-41196115D02*
X116952419Y-41053258D01*
X116952419Y-41053258D02*
X116952419Y-40958020D01*
X116952419Y-40958020D02*
X117000038Y-40815163D01*
X117000038Y-40815163D02*
X117047657Y-40767544D01*
X117857180Y-39767544D02*
X117904800Y-39815163D01*
X117904800Y-39815163D02*
X117952419Y-39958020D01*
X117952419Y-39958020D02*
X117952419Y-40053258D01*
X117952419Y-40053258D02*
X117904800Y-40196115D01*
X117904800Y-40196115D02*
X117809561Y-40291353D01*
X117809561Y-40291353D02*
X117714323Y-40338972D01*
X117714323Y-40338972D02*
X117523847Y-40386591D01*
X117523847Y-40386591D02*
X117380990Y-40386591D01*
X117380990Y-40386591D02*
X117190514Y-40338972D01*
X117190514Y-40338972D02*
X117095276Y-40291353D01*
X117095276Y-40291353D02*
X117000038Y-40196115D01*
X117000038Y-40196115D02*
X116952419Y-40053258D01*
X116952419Y-40053258D02*
X116952419Y-39958020D01*
X116952419Y-39958020D02*
X117000038Y-39815163D01*
X117000038Y-39815163D02*
X117047657Y-39767544D01*
X112952419Y-40696115D02*
X111952419Y-40696115D01*
X111952419Y-40029449D02*
X111952419Y-39838973D01*
X111952419Y-39838973D02*
X112000038Y-39743735D01*
X112000038Y-39743735D02*
X112095276Y-39648497D01*
X112095276Y-39648497D02*
X112285752Y-39600878D01*
X112285752Y-39600878D02*
X112619085Y-39600878D01*
X112619085Y-39600878D02*
X112809561Y-39648497D01*
X112809561Y-39648497D02*
X112904800Y-39743735D01*
X112904800Y-39743735D02*
X112952419Y-39838973D01*
X112952419Y-39838973D02*
X112952419Y-40029449D01*
X112952419Y-40029449D02*
X112904800Y-40124687D01*
X112904800Y-40124687D02*
X112809561Y-40219925D01*
X112809561Y-40219925D02*
X112619085Y-40267544D01*
X112619085Y-40267544D02*
X112285752Y-40267544D01*
X112285752Y-40267544D02*
X112095276Y-40219925D01*
X112095276Y-40219925D02*
X112000038Y-40124687D01*
X112000038Y-40124687D02*
X111952419Y-40029449D01*
X122250038Y-41672306D02*
X122202419Y-41767544D01*
X122202419Y-41767544D02*
X122202419Y-41910401D01*
X122202419Y-41910401D02*
X122250038Y-42053258D01*
X122250038Y-42053258D02*
X122345276Y-42148496D01*
X122345276Y-42148496D02*
X122440514Y-42196115D01*
X122440514Y-42196115D02*
X122630990Y-42243734D01*
X122630990Y-42243734D02*
X122773847Y-42243734D01*
X122773847Y-42243734D02*
X122964323Y-42196115D01*
X122964323Y-42196115D02*
X123059561Y-42148496D01*
X123059561Y-42148496D02*
X123154800Y-42053258D01*
X123154800Y-42053258D02*
X123202419Y-41910401D01*
X123202419Y-41910401D02*
X123202419Y-41815163D01*
X123202419Y-41815163D02*
X123154800Y-41672306D01*
X123154800Y-41672306D02*
X123107180Y-41624687D01*
X123107180Y-41624687D02*
X122773847Y-41624687D01*
X122773847Y-41624687D02*
X122773847Y-41815163D01*
X123202419Y-41196115D02*
X122202419Y-41196115D01*
X122202419Y-41196115D02*
X123202419Y-40624687D01*
X123202419Y-40624687D02*
X122202419Y-40624687D01*
X123202419Y-40148496D02*
X122202419Y-40148496D01*
X122202419Y-40148496D02*
X122202419Y-39910401D01*
X122202419Y-39910401D02*
X122250038Y-39767544D01*
X122250038Y-39767544D02*
X122345276Y-39672306D01*
X122345276Y-39672306D02*
X122440514Y-39624687D01*
X122440514Y-39624687D02*
X122630990Y-39577068D01*
X122630990Y-39577068D02*
X122773847Y-39577068D01*
X122773847Y-39577068D02*
X122964323Y-39624687D01*
X122964323Y-39624687D02*
X123059561Y-39672306D01*
X123059561Y-39672306D02*
X123154800Y-39767544D01*
X123154800Y-39767544D02*
X123202419Y-39910401D01*
X123202419Y-39910401D02*
X123202419Y-40148496D01*
X101952419Y-42338972D02*
X102952419Y-42005639D01*
X102952419Y-42005639D02*
X101952419Y-41672306D01*
X102857180Y-40767544D02*
X102904800Y-40815163D01*
X102904800Y-40815163D02*
X102952419Y-40958020D01*
X102952419Y-40958020D02*
X102952419Y-41053258D01*
X102952419Y-41053258D02*
X102904800Y-41196115D01*
X102904800Y-41196115D02*
X102809561Y-41291353D01*
X102809561Y-41291353D02*
X102714323Y-41338972D01*
X102714323Y-41338972D02*
X102523847Y-41386591D01*
X102523847Y-41386591D02*
X102380990Y-41386591D01*
X102380990Y-41386591D02*
X102190514Y-41338972D01*
X102190514Y-41338972D02*
X102095276Y-41291353D01*
X102095276Y-41291353D02*
X102000038Y-41196115D01*
X102000038Y-41196115D02*
X101952419Y-41053258D01*
X101952419Y-41053258D02*
X101952419Y-40958020D01*
X101952419Y-40958020D02*
X102000038Y-40815163D01*
X102000038Y-40815163D02*
X102047657Y-40767544D01*
X102857180Y-39767544D02*
X102904800Y-39815163D01*
X102904800Y-39815163D02*
X102952419Y-39958020D01*
X102952419Y-39958020D02*
X102952419Y-40053258D01*
X102952419Y-40053258D02*
X102904800Y-40196115D01*
X102904800Y-40196115D02*
X102809561Y-40291353D01*
X102809561Y-40291353D02*
X102714323Y-40338972D01*
X102714323Y-40338972D02*
X102523847Y-40386591D01*
X102523847Y-40386591D02*
X102380990Y-40386591D01*
X102380990Y-40386591D02*
X102190514Y-40338972D01*
X102190514Y-40338972D02*
X102095276Y-40291353D01*
X102095276Y-40291353D02*
X102000038Y-40196115D01*
X102000038Y-40196115D02*
X101952419Y-40053258D01*
X101952419Y-40053258D02*
X101952419Y-39958020D01*
X101952419Y-39958020D02*
X102000038Y-39815163D01*
X102000038Y-39815163D02*
X102047657Y-39767544D01*
X97952419Y-40696115D02*
X96952419Y-40696115D01*
X96952419Y-40029449D02*
X96952419Y-39838973D01*
X96952419Y-39838973D02*
X97000038Y-39743735D01*
X97000038Y-39743735D02*
X97095276Y-39648497D01*
X97095276Y-39648497D02*
X97285752Y-39600878D01*
X97285752Y-39600878D02*
X97619085Y-39600878D01*
X97619085Y-39600878D02*
X97809561Y-39648497D01*
X97809561Y-39648497D02*
X97904800Y-39743735D01*
X97904800Y-39743735D02*
X97952419Y-39838973D01*
X97952419Y-39838973D02*
X97952419Y-40029449D01*
X97952419Y-40029449D02*
X97904800Y-40124687D01*
X97904800Y-40124687D02*
X97809561Y-40219925D01*
X97809561Y-40219925D02*
X97619085Y-40267544D01*
X97619085Y-40267544D02*
X97285752Y-40267544D01*
X97285752Y-40267544D02*
X97095276Y-40219925D01*
X97095276Y-40219925D02*
X97000038Y-40124687D01*
X97000038Y-40124687D02*
X96952419Y-40029449D01*
X107250038Y-41672306D02*
X107202419Y-41767544D01*
X107202419Y-41767544D02*
X107202419Y-41910401D01*
X107202419Y-41910401D02*
X107250038Y-42053258D01*
X107250038Y-42053258D02*
X107345276Y-42148496D01*
X107345276Y-42148496D02*
X107440514Y-42196115D01*
X107440514Y-42196115D02*
X107630990Y-42243734D01*
X107630990Y-42243734D02*
X107773847Y-42243734D01*
X107773847Y-42243734D02*
X107964323Y-42196115D01*
X107964323Y-42196115D02*
X108059561Y-42148496D01*
X108059561Y-42148496D02*
X108154800Y-42053258D01*
X108154800Y-42053258D02*
X108202419Y-41910401D01*
X108202419Y-41910401D02*
X108202419Y-41815163D01*
X108202419Y-41815163D02*
X108154800Y-41672306D01*
X108154800Y-41672306D02*
X108107180Y-41624687D01*
X108107180Y-41624687D02*
X107773847Y-41624687D01*
X107773847Y-41624687D02*
X107773847Y-41815163D01*
X108202419Y-41196115D02*
X107202419Y-41196115D01*
X107202419Y-41196115D02*
X108202419Y-40624687D01*
X108202419Y-40624687D02*
X107202419Y-40624687D01*
X108202419Y-40148496D02*
X107202419Y-40148496D01*
X107202419Y-40148496D02*
X107202419Y-39910401D01*
X107202419Y-39910401D02*
X107250038Y-39767544D01*
X107250038Y-39767544D02*
X107345276Y-39672306D01*
X107345276Y-39672306D02*
X107440514Y-39624687D01*
X107440514Y-39624687D02*
X107630990Y-39577068D01*
X107630990Y-39577068D02*
X107773847Y-39577068D01*
X107773847Y-39577068D02*
X107964323Y-39624687D01*
X107964323Y-39624687D02*
X108059561Y-39672306D01*
X108059561Y-39672306D02*
X108154800Y-39767544D01*
X108154800Y-39767544D02*
X108202419Y-39910401D01*
X108202419Y-39910401D02*
X108202419Y-40148496D01*
X71872419Y-42338972D02*
X72872419Y-42005639D01*
X72872419Y-42005639D02*
X71872419Y-41672306D01*
X72777180Y-40767544D02*
X72824800Y-40815163D01*
X72824800Y-40815163D02*
X72872419Y-40958020D01*
X72872419Y-40958020D02*
X72872419Y-41053258D01*
X72872419Y-41053258D02*
X72824800Y-41196115D01*
X72824800Y-41196115D02*
X72729561Y-41291353D01*
X72729561Y-41291353D02*
X72634323Y-41338972D01*
X72634323Y-41338972D02*
X72443847Y-41386591D01*
X72443847Y-41386591D02*
X72300990Y-41386591D01*
X72300990Y-41386591D02*
X72110514Y-41338972D01*
X72110514Y-41338972D02*
X72015276Y-41291353D01*
X72015276Y-41291353D02*
X71920038Y-41196115D01*
X71920038Y-41196115D02*
X71872419Y-41053258D01*
X71872419Y-41053258D02*
X71872419Y-40958020D01*
X71872419Y-40958020D02*
X71920038Y-40815163D01*
X71920038Y-40815163D02*
X71967657Y-40767544D01*
X72777180Y-39767544D02*
X72824800Y-39815163D01*
X72824800Y-39815163D02*
X72872419Y-39958020D01*
X72872419Y-39958020D02*
X72872419Y-40053258D01*
X72872419Y-40053258D02*
X72824800Y-40196115D01*
X72824800Y-40196115D02*
X72729561Y-40291353D01*
X72729561Y-40291353D02*
X72634323Y-40338972D01*
X72634323Y-40338972D02*
X72443847Y-40386591D01*
X72443847Y-40386591D02*
X72300990Y-40386591D01*
X72300990Y-40386591D02*
X72110514Y-40338972D01*
X72110514Y-40338972D02*
X72015276Y-40291353D01*
X72015276Y-40291353D02*
X71920038Y-40196115D01*
X71920038Y-40196115D02*
X71872419Y-40053258D01*
X71872419Y-40053258D02*
X71872419Y-39958020D01*
X71872419Y-39958020D02*
X71920038Y-39815163D01*
X71920038Y-39815163D02*
X71967657Y-39767544D01*
X67872419Y-40696115D02*
X66872419Y-40696115D01*
X66872419Y-40029449D02*
X66872419Y-39838973D01*
X66872419Y-39838973D02*
X66920038Y-39743735D01*
X66920038Y-39743735D02*
X67015276Y-39648497D01*
X67015276Y-39648497D02*
X67205752Y-39600878D01*
X67205752Y-39600878D02*
X67539085Y-39600878D01*
X67539085Y-39600878D02*
X67729561Y-39648497D01*
X67729561Y-39648497D02*
X67824800Y-39743735D01*
X67824800Y-39743735D02*
X67872419Y-39838973D01*
X67872419Y-39838973D02*
X67872419Y-40029449D01*
X67872419Y-40029449D02*
X67824800Y-40124687D01*
X67824800Y-40124687D02*
X67729561Y-40219925D01*
X67729561Y-40219925D02*
X67539085Y-40267544D01*
X67539085Y-40267544D02*
X67205752Y-40267544D01*
X67205752Y-40267544D02*
X67015276Y-40219925D01*
X67015276Y-40219925D02*
X66920038Y-40124687D01*
X66920038Y-40124687D02*
X66872419Y-40029449D01*
X77170038Y-41672306D02*
X77122419Y-41767544D01*
X77122419Y-41767544D02*
X77122419Y-41910401D01*
X77122419Y-41910401D02*
X77170038Y-42053258D01*
X77170038Y-42053258D02*
X77265276Y-42148496D01*
X77265276Y-42148496D02*
X77360514Y-42196115D01*
X77360514Y-42196115D02*
X77550990Y-42243734D01*
X77550990Y-42243734D02*
X77693847Y-42243734D01*
X77693847Y-42243734D02*
X77884323Y-42196115D01*
X77884323Y-42196115D02*
X77979561Y-42148496D01*
X77979561Y-42148496D02*
X78074800Y-42053258D01*
X78074800Y-42053258D02*
X78122419Y-41910401D01*
X78122419Y-41910401D02*
X78122419Y-41815163D01*
X78122419Y-41815163D02*
X78074800Y-41672306D01*
X78074800Y-41672306D02*
X78027180Y-41624687D01*
X78027180Y-41624687D02*
X77693847Y-41624687D01*
X77693847Y-41624687D02*
X77693847Y-41815163D01*
X78122419Y-41196115D02*
X77122419Y-41196115D01*
X77122419Y-41196115D02*
X78122419Y-40624687D01*
X78122419Y-40624687D02*
X77122419Y-40624687D01*
X78122419Y-40148496D02*
X77122419Y-40148496D01*
X77122419Y-40148496D02*
X77122419Y-39910401D01*
X77122419Y-39910401D02*
X77170038Y-39767544D01*
X77170038Y-39767544D02*
X77265276Y-39672306D01*
X77265276Y-39672306D02*
X77360514Y-39624687D01*
X77360514Y-39624687D02*
X77550990Y-39577068D01*
X77550990Y-39577068D02*
X77693847Y-39577068D01*
X77693847Y-39577068D02*
X77884323Y-39624687D01*
X77884323Y-39624687D02*
X77979561Y-39672306D01*
X77979561Y-39672306D02*
X78074800Y-39767544D01*
X78074800Y-39767544D02*
X78122419Y-39910401D01*
X78122419Y-39910401D02*
X78122419Y-40148496D01*
D11*
X100324819Y-70856666D02*
X99848628Y-71189999D01*
X100324819Y-71428094D02*
X99324819Y-71428094D01*
X99324819Y-71428094D02*
X99324819Y-71047142D01*
X99324819Y-71047142D02*
X99372438Y-70951904D01*
X99372438Y-70951904D02*
X99420057Y-70904285D01*
X99420057Y-70904285D02*
X99515295Y-70856666D01*
X99515295Y-70856666D02*
X99658152Y-70856666D01*
X99658152Y-70856666D02*
X99753390Y-70904285D01*
X99753390Y-70904285D02*
X99801009Y-70951904D01*
X99801009Y-70951904D02*
X99848628Y-71047142D01*
X99848628Y-71047142D02*
X99848628Y-71428094D01*
X99658152Y-69999523D02*
X100324819Y-69999523D01*
X99277200Y-70237618D02*
X99991485Y-70475713D01*
X99991485Y-70475713D02*
X99991485Y-69856666D01*
X95324819Y-70856666D02*
X94848628Y-71189999D01*
X95324819Y-71428094D02*
X94324819Y-71428094D01*
X94324819Y-71428094D02*
X94324819Y-71047142D01*
X94324819Y-71047142D02*
X94372438Y-70951904D01*
X94372438Y-70951904D02*
X94420057Y-70904285D01*
X94420057Y-70904285D02*
X94515295Y-70856666D01*
X94515295Y-70856666D02*
X94658152Y-70856666D01*
X94658152Y-70856666D02*
X94753390Y-70904285D01*
X94753390Y-70904285D02*
X94801009Y-70951904D01*
X94801009Y-70951904D02*
X94848628Y-71047142D01*
X94848628Y-71047142D02*
X94848628Y-71428094D01*
X94324819Y-70523332D02*
X94324819Y-69904285D01*
X94324819Y-69904285D02*
X94705771Y-70237618D01*
X94705771Y-70237618D02*
X94705771Y-70094761D01*
X94705771Y-70094761D02*
X94753390Y-69999523D01*
X94753390Y-69999523D02*
X94801009Y-69951904D01*
X94801009Y-69951904D02*
X94896247Y-69904285D01*
X94896247Y-69904285D02*
X95134342Y-69904285D01*
X95134342Y-69904285D02*
X95229580Y-69951904D01*
X95229580Y-69951904D02*
X95277200Y-69999523D01*
X95277200Y-69999523D02*
X95324819Y-70094761D01*
X95324819Y-70094761D02*
X95324819Y-70380475D01*
X95324819Y-70380475D02*
X95277200Y-70475713D01*
X95277200Y-70475713D02*
X95229580Y-70523332D01*
X90324819Y-70856666D02*
X89848628Y-71189999D01*
X90324819Y-71428094D02*
X89324819Y-71428094D01*
X89324819Y-71428094D02*
X89324819Y-71047142D01*
X89324819Y-71047142D02*
X89372438Y-70951904D01*
X89372438Y-70951904D02*
X89420057Y-70904285D01*
X89420057Y-70904285D02*
X89515295Y-70856666D01*
X89515295Y-70856666D02*
X89658152Y-70856666D01*
X89658152Y-70856666D02*
X89753390Y-70904285D01*
X89753390Y-70904285D02*
X89801009Y-70951904D01*
X89801009Y-70951904D02*
X89848628Y-71047142D01*
X89848628Y-71047142D02*
X89848628Y-71428094D01*
X89420057Y-70475713D02*
X89372438Y-70428094D01*
X89372438Y-70428094D02*
X89324819Y-70332856D01*
X89324819Y-70332856D02*
X89324819Y-70094761D01*
X89324819Y-70094761D02*
X89372438Y-69999523D01*
X89372438Y-69999523D02*
X89420057Y-69951904D01*
X89420057Y-69951904D02*
X89515295Y-69904285D01*
X89515295Y-69904285D02*
X89610533Y-69904285D01*
X89610533Y-69904285D02*
X89753390Y-69951904D01*
X89753390Y-69951904D02*
X90324819Y-70523332D01*
X90324819Y-70523332D02*
X90324819Y-69904285D01*
X85324819Y-70976666D02*
X84848628Y-71309999D01*
X85324819Y-71548094D02*
X84324819Y-71548094D01*
X84324819Y-71548094D02*
X84324819Y-71167142D01*
X84324819Y-71167142D02*
X84372438Y-71071904D01*
X84372438Y-71071904D02*
X84420057Y-71024285D01*
X84420057Y-71024285D02*
X84515295Y-70976666D01*
X84515295Y-70976666D02*
X84658152Y-70976666D01*
X84658152Y-70976666D02*
X84753390Y-71024285D01*
X84753390Y-71024285D02*
X84801009Y-71071904D01*
X84801009Y-71071904D02*
X84848628Y-71167142D01*
X84848628Y-71167142D02*
X84848628Y-71548094D01*
X85324819Y-70024285D02*
X85324819Y-70595713D01*
X85324819Y-70309999D02*
X84324819Y-70309999D01*
X84324819Y-70309999D02*
X84467676Y-70405237D01*
X84467676Y-70405237D02*
X84562914Y-70500475D01*
X84562914Y-70500475D02*
X84610533Y-70595713D01*
X86761905Y-84374819D02*
X86761905Y-83374819D01*
X86761905Y-83374819D02*
X87000000Y-83374819D01*
X87000000Y-83374819D02*
X87142857Y-83422438D01*
X87142857Y-83422438D02*
X87238095Y-83517676D01*
X87238095Y-83517676D02*
X87285714Y-83612914D01*
X87285714Y-83612914D02*
X87333333Y-83803390D01*
X87333333Y-83803390D02*
X87333333Y-83946247D01*
X87333333Y-83946247D02*
X87285714Y-84136723D01*
X87285714Y-84136723D02*
X87238095Y-84231961D01*
X87238095Y-84231961D02*
X87142857Y-84327200D01*
X87142857Y-84327200D02*
X87000000Y-84374819D01*
X87000000Y-84374819D02*
X86761905Y-84374819D01*
X87666667Y-83374819D02*
X88285714Y-83374819D01*
X88285714Y-83374819D02*
X87952381Y-83755771D01*
X87952381Y-83755771D02*
X88095238Y-83755771D01*
X88095238Y-83755771D02*
X88190476Y-83803390D01*
X88190476Y-83803390D02*
X88238095Y-83851009D01*
X88238095Y-83851009D02*
X88285714Y-83946247D01*
X88285714Y-83946247D02*
X88285714Y-84184342D01*
X88285714Y-84184342D02*
X88238095Y-84279580D01*
X88238095Y-84279580D02*
X88190476Y-84327200D01*
X88190476Y-84327200D02*
X88095238Y-84374819D01*
X88095238Y-84374819D02*
X87809524Y-84374819D01*
X87809524Y-84374819D02*
X87714286Y-84327200D01*
X87714286Y-84327200D02*
X87666667Y-84279580D01*
X91761905Y-84374819D02*
X91761905Y-83374819D01*
X91761905Y-83374819D02*
X92000000Y-83374819D01*
X92000000Y-83374819D02*
X92142857Y-83422438D01*
X92142857Y-83422438D02*
X92238095Y-83517676D01*
X92238095Y-83517676D02*
X92285714Y-83612914D01*
X92285714Y-83612914D02*
X92333333Y-83803390D01*
X92333333Y-83803390D02*
X92333333Y-83946247D01*
X92333333Y-83946247D02*
X92285714Y-84136723D01*
X92285714Y-84136723D02*
X92238095Y-84231961D01*
X92238095Y-84231961D02*
X92142857Y-84327200D01*
X92142857Y-84327200D02*
X92000000Y-84374819D01*
X92000000Y-84374819D02*
X91761905Y-84374819D01*
X92714286Y-83470057D02*
X92761905Y-83422438D01*
X92761905Y-83422438D02*
X92857143Y-83374819D01*
X92857143Y-83374819D02*
X93095238Y-83374819D01*
X93095238Y-83374819D02*
X93190476Y-83422438D01*
X93190476Y-83422438D02*
X93238095Y-83470057D01*
X93238095Y-83470057D02*
X93285714Y-83565295D01*
X93285714Y-83565295D02*
X93285714Y-83660533D01*
X93285714Y-83660533D02*
X93238095Y-83803390D01*
X93238095Y-83803390D02*
X92666667Y-84374819D01*
X92666667Y-84374819D02*
X93285714Y-84374819D01*
X96761905Y-84374819D02*
X96761905Y-83374819D01*
X96761905Y-83374819D02*
X97000000Y-83374819D01*
X97000000Y-83374819D02*
X97142857Y-83422438D01*
X97142857Y-83422438D02*
X97238095Y-83517676D01*
X97238095Y-83517676D02*
X97285714Y-83612914D01*
X97285714Y-83612914D02*
X97333333Y-83803390D01*
X97333333Y-83803390D02*
X97333333Y-83946247D01*
X97333333Y-83946247D02*
X97285714Y-84136723D01*
X97285714Y-84136723D02*
X97238095Y-84231961D01*
X97238095Y-84231961D02*
X97142857Y-84327200D01*
X97142857Y-84327200D02*
X97000000Y-84374819D01*
X97000000Y-84374819D02*
X96761905Y-84374819D01*
X98285714Y-84374819D02*
X97714286Y-84374819D01*
X98000000Y-84374819D02*
X98000000Y-83374819D01*
X98000000Y-83374819D02*
X97904762Y-83517676D01*
X97904762Y-83517676D02*
X97809524Y-83612914D01*
X97809524Y-83612914D02*
X97714286Y-83660533D01*
X70929104Y-53594285D02*
X70929104Y-53118095D01*
X71214819Y-53689523D02*
X70214819Y-53356190D01*
X70214819Y-53356190D02*
X71214819Y-53022857D01*
X71214819Y-52165714D02*
X71214819Y-52737142D01*
X71214819Y-52451428D02*
X70214819Y-52451428D01*
X70214819Y-52451428D02*
X70357676Y-52546666D01*
X70357676Y-52546666D02*
X70452914Y-52641904D01*
X70452914Y-52641904D02*
X70500533Y-52737142D01*
X110854819Y-54141904D02*
X111664342Y-54141904D01*
X111664342Y-54141904D02*
X111759580Y-54094285D01*
X111759580Y-54094285D02*
X111807200Y-54046666D01*
X111807200Y-54046666D02*
X111854819Y-53951428D01*
X111854819Y-53951428D02*
X111854819Y-53760952D01*
X111854819Y-53760952D02*
X111807200Y-53665714D01*
X111807200Y-53665714D02*
X111759580Y-53618095D01*
X111759580Y-53618095D02*
X111664342Y-53570476D01*
X111664342Y-53570476D02*
X110854819Y-53570476D01*
X111807200Y-53141904D02*
X111854819Y-52999047D01*
X111854819Y-52999047D02*
X111854819Y-52760952D01*
X111854819Y-52760952D02*
X111807200Y-52665714D01*
X111807200Y-52665714D02*
X111759580Y-52618095D01*
X111759580Y-52618095D02*
X111664342Y-52570476D01*
X111664342Y-52570476D02*
X111569104Y-52570476D01*
X111569104Y-52570476D02*
X111473866Y-52618095D01*
X111473866Y-52618095D02*
X111426247Y-52665714D01*
X111426247Y-52665714D02*
X111378628Y-52760952D01*
X111378628Y-52760952D02*
X111331009Y-52951428D01*
X111331009Y-52951428D02*
X111283390Y-53046666D01*
X111283390Y-53046666D02*
X111235771Y-53094285D01*
X111235771Y-53094285D02*
X111140533Y-53141904D01*
X111140533Y-53141904D02*
X111045295Y-53141904D01*
X111045295Y-53141904D02*
X110950057Y-53094285D01*
X110950057Y-53094285D02*
X110902438Y-53046666D01*
X110902438Y-53046666D02*
X110854819Y-52951428D01*
X110854819Y-52951428D02*
X110854819Y-52713333D01*
X110854819Y-52713333D02*
X110902438Y-52570476D01*
X111331009Y-51808571D02*
X111378628Y-51665714D01*
X111378628Y-51665714D02*
X111426247Y-51618095D01*
X111426247Y-51618095D02*
X111521485Y-51570476D01*
X111521485Y-51570476D02*
X111664342Y-51570476D01*
X111664342Y-51570476D02*
X111759580Y-51618095D01*
X111759580Y-51618095D02*
X111807200Y-51665714D01*
X111807200Y-51665714D02*
X111854819Y-51760952D01*
X111854819Y-51760952D02*
X111854819Y-52141904D01*
X111854819Y-52141904D02*
X110854819Y-52141904D01*
X110854819Y-52141904D02*
X110854819Y-51808571D01*
X110854819Y-51808571D02*
X110902438Y-51713333D01*
X110902438Y-51713333D02*
X110950057Y-51665714D01*
X110950057Y-51665714D02*
X111045295Y-51618095D01*
X111045295Y-51618095D02*
X111140533Y-51618095D01*
X111140533Y-51618095D02*
X111235771Y-51665714D01*
X111235771Y-51665714D02*
X111283390Y-51713333D01*
X111283390Y-51713333D02*
X111331009Y-51808571D01*
X111331009Y-51808571D02*
X111331009Y-52141904D01*
D12*
%TO.C,D4*%
X81120000Y-80270000D02*
X81120000Y-77620000D01*
X83880000Y-77620000D02*
X81120000Y-77620000D01*
X83880000Y-80270000D02*
X81120000Y-80270000D01*
X83880000Y-80270000D02*
X83880000Y-77620000D01*
X83880000Y-81540000D02*
X83880000Y-82920000D01*
X83880000Y-82920000D02*
X82500000Y-82920000D01*
%TO.C,R4*%
X98870000Y-67420000D02*
X98870000Y-73960000D01*
X98540000Y-67420000D02*
X98870000Y-67420000D01*
X96460000Y-67420000D02*
X96130000Y-67420000D01*
X96130000Y-67420000D02*
X96130000Y-73960000D01*
X98870000Y-73960000D02*
X98540000Y-73960000D01*
X96130000Y-73960000D02*
X96460000Y-73960000D01*
%TO.C,R3*%
X93870000Y-67420000D02*
X93870000Y-73960000D01*
X93540000Y-67420000D02*
X93870000Y-67420000D01*
X91460000Y-67420000D02*
X91130000Y-67420000D01*
X91130000Y-67420000D02*
X91130000Y-73960000D01*
X93870000Y-73960000D02*
X93540000Y-73960000D01*
X91130000Y-73960000D02*
X91460000Y-73960000D01*
%TO.C,R2*%
X88870000Y-67420000D02*
X88870000Y-73960000D01*
X88540000Y-67420000D02*
X88870000Y-67420000D01*
X86460000Y-67420000D02*
X86130000Y-67420000D01*
X86130000Y-67420000D02*
X86130000Y-73960000D01*
X88870000Y-73960000D02*
X88540000Y-73960000D01*
X86130000Y-73960000D02*
X86460000Y-73960000D01*
%TO.C,R1*%
X83870000Y-67540000D02*
X83870000Y-74080000D01*
X83540000Y-67540000D02*
X83870000Y-67540000D01*
X81460000Y-67540000D02*
X81130000Y-67540000D01*
X81130000Y-67540000D02*
X81130000Y-74080000D01*
X83870000Y-74080000D02*
X83540000Y-74080000D01*
X81130000Y-74080000D02*
X81460000Y-74080000D01*
%TO.C,D3*%
X88880000Y-82920000D02*
X87500000Y-82920000D01*
X88880000Y-81540000D02*
X88880000Y-82920000D01*
X88880000Y-80270000D02*
X88880000Y-77620000D01*
X88880000Y-80270000D02*
X86120000Y-80270000D01*
X88880000Y-77620000D02*
X86120000Y-77620000D01*
X86120000Y-80270000D02*
X86120000Y-77620000D01*
%TO.C,D2*%
X93880000Y-82920000D02*
X92500000Y-82920000D01*
X93880000Y-81540000D02*
X93880000Y-82920000D01*
X93880000Y-80270000D02*
X93880000Y-77620000D01*
X93880000Y-80270000D02*
X91120000Y-80270000D01*
X93880000Y-77620000D02*
X91120000Y-77620000D01*
X91120000Y-80270000D02*
X91120000Y-77620000D01*
%TO.C,D1*%
X98880000Y-82920000D02*
X97500000Y-82920000D01*
X98880000Y-81540000D02*
X98880000Y-82920000D01*
X98880000Y-80270000D02*
X98880000Y-77620000D01*
X98880000Y-80270000D02*
X96120000Y-80270000D01*
X98880000Y-77620000D02*
X96120000Y-77620000D01*
X96120000Y-80270000D02*
X96120000Y-77620000D01*
%TO.C,A1*%
X71900000Y-61900000D02*
X74570000Y-61900000D01*
X77110000Y-61900000D02*
X115340000Y-61900000D01*
X115340000Y-61900000D02*
X115340000Y-56820000D01*
X74570000Y-59230000D02*
X74570000Y-61900000D01*
X77110000Y-59230000D02*
X77110000Y-61900000D01*
X77110000Y-59230000D02*
X74570000Y-59230000D01*
X77110000Y-59230000D02*
X112670000Y-59230000D01*
X112670000Y-59230000D02*
X112670000Y-61900000D01*
X107460000Y-56820000D02*
X107460000Y-48940000D01*
X117880000Y-56820000D02*
X107460000Y-56820000D01*
X107460000Y-48940000D02*
X117880000Y-48940000D01*
X117880000Y-48940000D02*
X117880000Y-56820000D01*
X74570000Y-46530000D02*
X112670000Y-46530000D01*
X74570000Y-46530000D02*
X74570000Y-43860000D01*
X112670000Y-46530000D02*
X112670000Y-43860000D01*
X71900000Y-43860000D02*
X71900000Y-61900000D01*
X115340000Y-43860000D02*
X115340000Y-48940000D01*
X115340000Y-43860000D02*
X71900000Y-43860000D01*
%TD*%
M02*
